<svg width="28" height="29" viewBox="0 0 28 29" fill="none" xmlns="http://www.w3.org/2000/svg">
<path d="M26.182 29C25.6826 28.8568 25.3392 28.5102 24.9881 28.1636C22.881 26.0388 20.7662 23.9214 18.6514 21.7966C18.5812 21.7212 18.5109 21.6534 18.4329 21.5705C15.288 23.5748 11.9089 24.1399 8.30356 23.1076C5.63466 22.3466 3.51203 20.7944 1.97468 18.5565C-1.35754 13.7115 -0.389866 7.35199 4.25339 3.62218C8.67033 0.0731992 14.89 0.163619 19.2211 3.65232C20.8286 4.94833 21.9914 6.55329 22.7094 8.44457C23.4273 10.3283 23.5912 12.2723 23.24 14.254C22.881 16.2433 22.0148 18.0065 20.6726 19.5737C20.813 19.7169 20.9457 19.8525 21.0706 19.9806C23.201 22.1206 25.3392 24.2605 27.4697 26.4004C28.133 27.071 28.1876 27.9526 27.5633 28.5404C27.3448 28.7438 27.0249 28.8493 26.7517 29C26.5566 29 26.3693 29 26.182 29ZM11.7216 3.96125C6.96131 3.96125 3.08282 7.6986 3.07502 12.3025C3.05941 16.8988 6.98472 20.6889 11.7294 20.6588C16.5131 20.6286 20.3682 16.8988 20.3604 12.3025C20.3526 7.70614 16.4819 3.96125 11.7216 3.96125Z" fill="url(#paint0_linear_41_897)"/>
<defs>
<linearGradient id="paint0_linear_41_897" x1="1.91586" y1="3.5242" x2="28.86" y2="4.06533" gradientUnits="userSpaceOnUse">
<stop stop-color="#F2A031"/>
<stop offset="0.2399" stop-color="#F2A031"/>
<stop offset="0.3542" stop-color="#F8CA53"/>
<stop offset="0.4462" stop-color="#FCE468"/>
<stop offset="0.5005" stop-color="#FDEE70"/>
<stop offset="0.5716" stop-color="#FCEA6D"/>
<stop offset="0.6467" stop-color="#FBDD62"/>
<stop offset="0.7205" stop-color="#F8C952"/>
<stop offset="0.8607" stop-color="#F6BD48"/>
<stop offset="1" stop-color="#F5B743"/>
</linearGradient>
</defs>
</svg>
