<svg width="36" height="36" viewBox="0 0 36 36" fill="none" xmlns="http://www.w3.org/2000/svg">
<g clip-path="url(#clip0_41_1012)">
<path d="M35.9914 27.676C35.9829 26.2943 35.0724 25.3953 33.6515 25.3787C33.3026 25.3787 32.9538 25.3787 32.6049 25.3787C32.5028 25.3787 32.4007 25.3787 32.2986 25.3787C32.3156 24.23 32.1625 23.5891 31.7796 23.1895C31.3712 22.765 30.716 22.6485 29.8056 22.6235C29.8056 22.2073 29.8056 21.7995 29.8056 21.3833C29.8056 19.4522 29.8056 17.4545 29.8226 15.4984C29.8226 15.4319 29.9928 15.2571 30.1544 15.1821C33.3026 13.7838 34.9788 11.4198 35.1405 8.16527C35.2596 5.76804 34.2386 3.47903 32.3327 1.8892C30.4437 0.307698 27.9933 -0.324903 25.6193 0.149548C22.0883 0.865386 19.4761 3.6455 19.1188 7.06654C18.7614 10.5542 20.7779 13.8087 24.1388 15.1738C24.3941 15.2737 24.4537 15.3653 24.4537 15.6233C24.4452 17.1965 24.4452 18.7946 24.4452 20.3345C24.4452 21.0254 24.4452 21.7163 24.4452 22.4071C24.4452 22.482 24.4366 22.5653 24.4281 22.6568C24.3941 22.6568 24.3516 22.6568 24.3175 22.6568C23.6198 22.6402 22.82 22.6152 22.4201 23.3394C22.1819 23.7805 22.0798 24.2716 21.9691 24.796C21.9266 24.9875 21.8926 25.1789 21.8415 25.3787H20.9992C20.9992 25.3121 20.9992 25.2372 20.9992 25.1706C20.9992 24.9292 20.9992 24.7045 20.9992 24.4797C20.9566 23.3643 20.2334 22.6735 19.1103 22.6652C17.8595 22.6568 16.3705 22.6568 14.8389 22.6652C13.7753 22.6735 13.0351 23.381 13.0181 24.4298C13.0096 24.6795 13.0181 24.9292 13.0181 25.1706C13.0181 25.2289 13.0181 25.2871 13.0181 25.3371H11.8269C11.8269 25.2705 11.8269 25.2122 11.8269 25.1456C11.8269 24.8959 11.8354 24.6545 11.8184 24.4131C11.7673 23.331 11.0356 22.6568 9.92944 22.6568C8.66166 22.6485 7.15563 22.6485 5.65811 22.6568C4.58602 22.6652 3.85428 23.3727 3.82876 24.4215C3.82025 24.6712 3.82876 24.9126 3.82876 25.1706C3.82876 25.2372 3.82876 25.3038 3.82876 25.3704C3.69262 25.3704 3.56499 25.3704 3.43736 25.3704C3.05447 25.3704 2.6886 25.3704 2.33124 25.3704C0.927316 25.387 0.00838399 26.286 -0.000124638 27.6677C-0.00863326 29.7569 -0.000124638 31.8129 -0.000124638 33.719C-0.000124638 33.9771 0.0254012 34.1935 0.076453 34.3766C0.374255 35.4504 1.21661 35.9914 2.56948 35.9914C11.5291 35.9914 20.4886 35.9914 29.4482 35.9914H33.4047H33.4728C33.4983 35.9914 33.5154 35.9914 33.5409 35.9914C33.6175 35.9914 33.7025 35.9914 33.7876 35.9831C35.115 35.8998 35.9829 35.0175 35.9829 33.719C35.9999 31.7879 35.9999 29.7569 35.9914 27.676ZM22.7434 12.3438C21.5267 11.1868 20.8375 9.65521 20.812 8.02377C20.7609 4.5944 23.5177 1.76435 26.9637 1.70608C27.0063 1.70608 27.0403 1.70608 27.0743 1.70608C28.7675 1.70608 30.3501 2.32203 31.5414 3.45406C32.7581 4.60273 33.4388 6.15926 33.4643 7.84897C33.5154 11.2367 30.716 14.0418 27.2275 14.1001C25.5513 14.125 23.9602 13.5008 22.7434 12.3438ZM28.0528 15.7315V22.6485H26.1979V15.7315H28.0528ZM23.7304 24.488C23.756 24.4464 23.8666 24.3632 23.9091 24.3632C26.2575 24.3465 28.3591 24.3465 30.3416 24.3632C30.4012 24.3798 30.5288 24.513 30.5458 24.5879C30.5799 24.7794 30.5714 24.9958 30.5629 25.2122C30.5629 25.2621 30.5629 25.3121 30.5544 25.362H23.7134C23.7134 25.3121 23.7134 25.2705 23.7134 25.2205C23.7049 24.9708 23.6964 24.7294 23.7304 24.488ZM14.7453 24.4547C14.8389 24.3549 15.1963 24.3549 15.7323 24.3549C16.0386 24.3549 16.3364 24.3549 16.6427 24.3549C17.3745 24.3632 18.1318 24.3632 18.8805 24.3382C19.0677 24.3299 19.1953 24.3549 19.2464 24.4131C19.2974 24.4714 19.3145 24.5796 19.2974 24.7544C19.2804 24.9292 19.2804 25.0957 19.2889 25.2705C19.2889 25.2954 19.2889 25.3204 19.2889 25.3454H14.7453C14.6858 24.8709 14.6602 24.5463 14.7453 24.4547ZM5.57303 24.488C5.59855 24.4464 5.70916 24.3632 5.76021 24.3632C7.30028 24.3382 8.66166 24.3465 9.90392 24.3632C9.96348 24.3798 10.0996 24.513 10.1081 24.5879C10.1422 24.7794 10.1336 24.9875 10.1336 25.2122C10.1336 25.2621 10.1336 25.3121 10.1251 25.362H5.55601C5.55601 25.3121 5.55601 25.2705 5.55601 25.2205C5.5475 24.9708 5.53899 24.7211 5.57303 24.488ZM34.2726 33.5692C34.2726 34.1935 34.128 34.3267 33.4813 34.3267C23.1518 34.3267 12.8224 34.3267 2.50141 34.3267C1.85476 34.3267 1.71011 34.1935 1.71011 33.5692C1.71011 31.4883 1.71011 29.5905 1.71011 27.7842C1.71011 27.1766 1.82923 27.0684 2.46738 27.0684C5.09654 27.0684 7.72571 27.0684 10.3549 27.0684C11.6227 27.0684 12.899 27.0684 14.1667 27.0684H17.9871H21.0587H33.3452C34.2131 27.0684 34.2726 27.1183 34.2726 27.9923V29.0994C34.2811 30.5893 34.2811 32.0793 34.2726 33.5692Z" fill="#2283F6"/>
<path d="M32.6132 31.9214C32.4175 31.8631 32.2218 31.8631 32.0261 31.8631H31.9835C22.8793 31.8631 13.4518 31.8631 3.97314 31.8631C3.9306 31.8631 3.88806 31.8631 3.837 31.8548C3.64982 31.8465 3.44561 31.8381 3.29245 31.9464C3.07123 32.1128 2.71387 32.4374 2.75641 32.7371C2.79044 33.0368 3.11377 33.2698 3.36903 33.4613L3.38605 33.4779C3.46263 33.5362 3.55622 33.5528 3.64982 33.5528C3.70938 33.5528 3.76894 33.5445 3.81999 33.5445C3.87104 33.5362 3.91358 33.5362 3.95613 33.5362C7.96369 33.5362 11.9713 33.5362 15.9788 33.5362H20.131C24.0705 33.5362 28.0185 33.5362 31.958 33.5362C32.0006 33.5362 32.0431 33.5445 32.0942 33.5445C32.2388 33.5611 32.4005 33.5695 32.5281 33.4862C32.8004 33.3031 33.0726 33.1033 33.1748 32.8287C33.2343 32.6455 33.2258 32.4707 33.1407 32.3126C33.0556 32.1378 32.8599 31.988 32.6132 31.9214Z" fill="#2283F6"/>
</g>
<defs>
<clipPath id="clip0_41_1012">
<rect width="36" height="36" fill="white"/>
</clipPath>
</defs>
</svg>
