<svg width="41" height="42" viewBox="0 0 41 42" fill="none" xmlns="http://www.w3.org/2000/svg">
<path d="M40.667 14.4237C40.5108 15.0913 40.4067 15.7797 40.1985 16.4264C39.0428 19.9101 35.7737 22.2986 32.0985 22.2986C31.3281 22.2986 30.8492 22.4863 30.3494 23.1121C28.7982 25.0626 26.768 26.3664 24.3734 27.0861C24.1027 27.1695 24.009 27.2843 24.009 27.5659C24.0298 28.9009 24.0194 30.2464 24.0194 31.6232C24.186 31.6337 24.3213 31.6441 24.4567 31.6441C24.9981 31.6441 25.5499 31.6337 26.0912 31.6545C27.5905 31.7171 28.7357 32.5933 29.1938 34.0118C29.2563 34.1995 29.3187 34.3142 29.5478 34.3247C30.818 34.429 31.8174 35.326 31.9632 36.5776C32.0465 37.266 32.0465 37.9857 31.9632 38.6845C31.7966 40.0405 30.6722 40.9583 29.2771 40.9583C26.1433 40.9688 23.0095 40.9583 19.8653 40.9583C17.3146 40.9583 14.7638 40.9583 12.2131 40.9583C10.4744 40.9583 9.34997 39.8423 9.36038 38.1109C9.36038 37.5581 9.32915 36.9844 9.42285 36.442C9.63107 35.253 10.5889 34.4185 11.7966 34.3247C11.9944 34.3038 12.0881 34.2517 12.1506 34.0639C12.6816 32.489 13.8268 31.6545 15.4822 31.6441C16.0756 31.6441 16.6795 31.6441 17.3042 31.6441C17.3146 31.4876 17.325 31.3625 17.325 31.2373C17.325 29.9961 17.3146 28.7653 17.3354 27.5241C17.3354 27.2425 17.2417 27.1278 16.971 27.0444C14.4098 26.2099 12.3068 24.7184 10.6826 22.5698C10.5264 22.3716 10.3807 22.2882 10.1308 22.2986C8.4546 22.3716 6.83045 22.1317 5.34164 21.3181C2.7076 19.8788 1.16673 17.678 0.739871 14.7054C0.72946 14.6323 0.698226 14.5593 0.666992 14.4863C0.666992 11.6284 0.666992 8.76011 0.666992 5.90222C1.08344 4.69231 1.94758 4.25424 3.18651 4.30639C4.66491 4.3794 6.11207 4.33768 7.56965 4.33768C7.70499 4.33768 7.85075 4.33768 7.97569 4.33768C8.23597 2.86702 8.56913 2.17862 9.43326 1.62582C9.86012 1.35463 10.3703 1.20861 10.8388 1C17.3979 1 23.9569 1 30.516 1C30.6514 1.04172 30.7763 1.09387 30.9117 1.13559C32.0257 1.46936 32.7753 2.18905 33.1501 3.2738C33.2646 3.59713 33.2958 3.95176 33.3791 4.33768C33.4936 4.33768 33.6394 4.33768 33.7747 4.33768C35.3885 4.33768 36.9918 4.33768 38.6056 4.33768C39.4176 4.33768 40.0215 4.69231 40.4171 5.40157C40.5108 5.56845 40.5733 5.74577 40.6566 5.92308C40.667 8.76011 40.667 11.5971 40.667 14.4237ZM20.6774 2.33507C17.6061 2.33507 14.5348 2.33507 11.4635 2.33507C10.1933 2.33507 9.34997 3.16949 9.34997 4.43156C9.34997 7.86311 9.34997 11.2947 9.34997 14.7367C9.34997 16.9792 9.96423 19.0443 11.1511 20.9427C13.5769 24.854 18.1579 26.9609 22.4994 26.1786C28.1319 25.1669 31.984 20.5776 31.9944 14.8618C31.9944 11.4303 31.9944 7.9987 31.9944 4.55672C31.9944 3.1382 31.1823 2.33507 29.7664 2.33507C26.7472 2.32464 23.7071 2.33507 20.6774 2.33507ZM20.6774 35.6493C17.8247 35.6493 14.9825 35.6493 12.1298 35.6493C11.2032 35.6493 10.6826 36.1813 10.6826 37.1096C10.6826 37.4225 10.6826 37.7354 10.6826 38.0483C10.6826 39.1539 11.1719 39.6441 12.2755 39.6441C17.2 39.6441 22.135 39.6441 27.0595 39.6441C27.757 39.6441 28.465 39.6441 29.1626 39.6441C30.1308 39.6441 30.6618 39.1122 30.6722 38.1526C30.6722 37.8397 30.6722 37.5268 30.6722 37.2139C30.6722 36.1291 30.1829 35.6493 29.1001 35.6493C26.2891 35.6493 23.478 35.6493 20.6774 35.6493ZM7.99651 5.67276C6.24742 5.67276 4.52956 5.67276 2.81171 5.67276C2.23909 5.67276 2.01004 5.91265 2.01004 6.48632C2.01004 8.90614 1.9684 11.326 2.02045 13.7458C2.07251 16.3533 3.22816 18.3872 5.40411 19.8266C6.66387 20.661 8.06939 21.0157 9.62066 20.9844C9.45408 20.6402 9.2875 20.3481 9.17298 20.0352C9.05845 19.7223 8.87105 19.618 8.5483 19.5763C5.93508 19.2947 3.61337 17.0835 3.42597 14.4655C3.2698 12.2021 3.35309 9.91787 3.34268 7.64407C3.34268 7.24773 3.62379 7.00783 4.02982 7.00783C4.69614 6.9974 5.35205 7.00783 6.01837 7.00783C6.66387 7.00783 7.30937 7.00783 7.97569 7.00783C7.99651 6.5489 7.99651 6.14212 7.99651 5.67276ZM33.3479 6.9974C33.5249 6.9974 33.6602 6.9974 33.806 6.9974C34.92 6.9974 36.0444 6.9974 37.1584 6.9974C37.7831 6.9974 38.0017 7.22686 38.0017 7.84225C38.0017 9.78228 38.0121 11.7223 38.0017 13.6519C37.9809 16.6975 35.7633 19.1799 32.7544 19.5867C32.6399 19.6076 32.4629 19.6389 32.4213 19.7223C32.2131 20.1187 32.0465 20.5359 31.8591 20.9739C31.9736 20.9739 32.0361 20.9739 32.0985 20.9739C35.9819 20.9635 39.2615 17.7406 39.3239 13.8292C39.3656 11.3677 39.3344 8.91657 39.3344 6.45503C39.3344 5.89179 39.0949 5.6519 38.5223 5.6519C36.8981 5.6519 35.274 5.6519 33.6498 5.6519C33.5561 5.6519 33.452 5.67276 33.3479 5.68319C33.3479 6.13169 33.3479 6.53847 33.3479 6.9974ZM4.72738 8.3429C4.72738 10.3351 4.62326 12.2855 4.75861 14.2256C4.88355 16.03 5.97673 17.2712 7.63211 17.9805C7.8924 18.0952 8.18391 18.1473 8.48584 18.2412C7.64253 14.9348 8.19432 11.6284 7.97569 8.3429C6.89292 8.3429 5.81015 8.3429 4.72738 8.3429ZM33.3375 8.3429C33.3375 8.52022 33.3375 8.66624 33.3375 8.80183C33.3375 10.5437 33.3479 12.2855 33.3375 14.0274C33.3271 14.8305 33.3167 15.6441 33.2438 16.4368C33.1917 17.0104 33.0564 17.5737 32.9523 18.1891C33.1084 18.1578 33.2334 18.1369 33.3479 18.0952C35.3364 17.4902 36.6483 15.7275 36.6691 13.5893C36.6795 11.9413 36.6691 10.2829 36.6691 8.63495C36.6691 8.53065 36.6483 8.43677 36.6378 8.32204C35.5447 8.3429 34.4619 8.3429 33.3375 8.3429ZM13.4624 34.2934C18.3036 34.2934 23.072 34.2934 27.8612 34.2934C27.8299 34.2099 27.8299 34.1578 27.7987 34.1161C27.3927 33.3338 26.7367 32.9792 25.8622 32.9792C22.4057 32.9896 18.9387 32.9792 15.4822 32.9792C15.3364 32.9792 15.1907 32.9792 15.0553 33C14.3057 33.1252 13.7956 33.5528 13.4624 34.2934ZM22.666 27.5659C21.3125 27.5659 20.0111 27.5659 18.7097 27.5659C18.7097 28.8905 18.7097 30.2464 18.7097 31.6128C20.0423 31.6128 21.3541 31.6128 22.666 31.6128C22.666 30.236 22.666 28.8905 22.666 27.5659Z" fill="url(#paint0_linear_41_885)" stroke="url(#paint1_linear_41_885)" stroke-width="0.4"/>
<path d="M19.8966 10.0013C19.4489 10.4602 19.0012 10.9296 18.5536 11.399C18.3349 11.6284 18.0746 11.7119 17.7727 11.6076C17.3459 11.4511 17.2001 10.8879 17.5437 10.5437C18.4182 9.63625 19.3136 8.73925 20.2298 7.87354C20.3755 7.72751 20.7295 7.67536 20.9273 7.74837C21.1043 7.81095 21.2188 8.09257 21.3334 8.30118C21.3854 8.39505 21.3438 8.53064 21.3438 8.64537C21.3438 11.9831 21.3438 15.3312 21.3438 18.6689C21.3438 19.326 21.1147 19.6597 20.667 19.6493C20.2194 19.6389 20.0111 19.326 20.0111 18.648C20.0111 15.9153 20.0111 13.1825 20.0111 10.4602C20.0111 10.3246 20.0111 10.1891 20.0111 10.0535C19.9695 10.043 19.9278 10.0222 19.8966 10.0013Z" fill="url(#paint2_linear_41_885)" stroke="url(#paint3_linear_41_885)" stroke-width="0.4"/>
<defs>
<linearGradient id="paint0_linear_41_885" x1="3.40385" y1="4.60535" x2="41.8941" y2="5.37912" gradientUnits="userSpaceOnUse">
<stop stop-color="#F2A031"/>
<stop offset="0.2399" stop-color="#F2A031"/>
<stop offset="0.3542" stop-color="#F8CA53"/>
<stop offset="0.4462" stop-color="#FCE468"/>
<stop offset="0.5005" stop-color="#FDEE70"/>
<stop offset="0.5716" stop-color="#FCEA6D"/>
<stop offset="0.6467" stop-color="#FBDD62"/>
<stop offset="0.7205" stop-color="#F8C952"/>
<stop offset="0.8607" stop-color="#F6BD48"/>
<stop offset="1" stop-color="#F5B743"/>
</linearGradient>
<linearGradient id="paint1_linear_41_885" x1="3.40385" y1="4.60535" x2="41.8941" y2="5.37912" gradientUnits="userSpaceOnUse">
<stop stop-color="#F2A031"/>
<stop offset="0.2399" stop-color="#F2A031"/>
<stop offset="0.3542" stop-color="#F8CA53"/>
<stop offset="0.4462" stop-color="#FCE468"/>
<stop offset="0.5005" stop-color="#FDEE70"/>
<stop offset="0.5716" stop-color="#FCEA6D"/>
<stop offset="0.6467" stop-color="#FBDD62"/>
<stop offset="0.7205" stop-color="#F8C952"/>
<stop offset="0.8607" stop-color="#F6BD48"/>
<stop offset="1" stop-color="#F5B743"/>
</linearGradient>
<linearGradient id="paint2_linear_41_885" x1="17.6267" y1="8.79225" x2="21.4838" y2="8.81826" gradientUnits="userSpaceOnUse">
<stop stop-color="#F2A031"/>
<stop offset="0.2399" stop-color="#F2A031"/>
<stop offset="0.3542" stop-color="#F8CA53"/>
<stop offset="0.4462" stop-color="#FCE468"/>
<stop offset="0.5005" stop-color="#FDEE70"/>
<stop offset="0.5716" stop-color="#FCEA6D"/>
<stop offset="0.6467" stop-color="#FBDD62"/>
<stop offset="0.7205" stop-color="#F8C952"/>
<stop offset="0.8607" stop-color="#F6BD48"/>
<stop offset="1" stop-color="#F5B743"/>
</linearGradient>
<linearGradient id="paint3_linear_41_885" x1="17.6267" y1="8.79225" x2="21.4838" y2="8.81826" gradientUnits="userSpaceOnUse">
<stop stop-color="#F2A031"/>
<stop offset="0.2399" stop-color="#F2A031"/>
<stop offset="0.3542" stop-color="#F8CA53"/>
<stop offset="0.4462" stop-color="#FCE468"/>
<stop offset="0.5005" stop-color="#FDEE70"/>
<stop offset="0.5716" stop-color="#FCEA6D"/>
<stop offset="0.6467" stop-color="#FBDD62"/>
<stop offset="0.7205" stop-color="#F8C952"/>
<stop offset="0.8607" stop-color="#F6BD48"/>
<stop offset="1" stop-color="#F5B743"/>
</linearGradient>
</defs>
</svg>
