<svg width="36" height="36" viewBox="0 0 36 36" fill="none" xmlns="http://www.w3.org/2000/svg">
<g clip-path="url(#clip0_41_1019)">
<path d="M18.0001 12.0066C18.1966 12.0066 18.3439 12.0066 18.4913 12.0066C20.9673 12.0066 23.4433 12.0066 25.9193 12.0066C26.7937 12.0066 26.9902 12.2129 26.9902 13.0972C26.9902 18.3046 26.9902 23.512 26.9902 28.7293C26.9902 28.8865 26.9902 29.0437 26.9902 29.2304C29.4957 29.2304 31.9717 29.2304 34.4673 29.2304C34.4673 22.2544 34.4673 15.2784 34.4673 8.2631C34.3101 8.2631 34.1725 8.2631 34.0252 8.2631C31.5787 8.2631 29.1223 8.2631 26.6758 8.2631C26.5677 8.2631 26.4597 8.2631 26.3418 8.2631C25.8112 8.24345 25.487 7.95852 25.4968 7.49673C25.5066 7.05459 25.8407 6.75983 26.3712 6.75983C29.2795 6.75983 32.178 6.75983 35.0863 6.75983C35.7053 6.75983 35.9902 7.04476 35.9902 7.65393C36.0001 8.89192 35.9902 10.1299 35.9902 11.3679C35.9902 17.4203 35.9902 23.4727 35.9902 29.5349C35.9902 29.6332 35.9902 29.7314 35.9902 29.8297C35.9804 30.4782 35.7249 30.7533 35.0765 30.7533C32.5415 30.7533 30.0066 30.7533 27.4618 30.7533C27.3145 30.7533 27.1769 30.7533 26.9804 30.7533C26.9804 30.9301 26.9804 31.0579 26.9804 31.1856C26.9804 32.4727 26.9804 33.7598 26.9804 35.0469C26.9804 35.7544 26.7348 36.0098 26.0372 36.0098C20.6725 36.0098 15.2981 36.0098 9.93347 36.0098C9.26534 36.0098 9.00006 35.7445 9.00006 35.0666C9.00006 31.5393 9.00006 28.0022 9.00006 24.4749C9.00006 24.3275 9.00006 24.19 9.00006 24.0033C8.80355 24.0033 8.666 24.0033 8.51862 24.0033C6.02298 24.0033 3.51753 24.0033 1.02189 24.0033C0.235868 24.0033 -0.00976562 23.7576 -0.00976562 22.9716C5.97024e-05 15.6616 5.97024e-05 8.35153 5.97024e-05 1.05131C5.97024e-05 0.245633 0.245693 0 1.05137 0C6.35705 0 11.6627 0 16.9684 0C17.7544 0 17.9902 0.245633 17.9902 1.03166C17.9902 4.52948 17.9902 8.01747 17.9902 11.5153C18.0001 11.6627 18.0001 11.81 18.0001 12.0066ZM10.5132 34.4574C15.5241 34.4574 20.4957 34.4574 25.4673 34.4574C25.4673 27.4618 25.4673 20.4956 25.4673 13.5295C20.4662 13.5295 15.4946 13.5295 10.5132 13.5295C10.5132 20.5153 10.5132 27.4716 10.5132 34.4574ZM16.487 1.53275C11.4859 1.53275 6.51425 1.53275 1.53281 1.53275C1.53281 8.51856 1.53281 15.4847 1.53281 22.4607C4.02844 22.4607 6.50443 22.4607 9.00988 22.4607C9.00988 21.1441 9.01971 19.857 9.00006 18.5699C9.00006 18.3537 8.93128 18.1081 8.8232 17.9214C7.59504 15.8876 6.36687 13.8537 5.11905 11.8395C4.88325 11.4465 4.85377 11.1026 5.06993 10.7096C5.30574 10.2576 5.51207 9.78603 5.72823 9.31441C6.52408 7.63428 7.31993 5.95415 8.10595 4.26419C8.25333 3.94978 8.48914 3.74345 8.84285 3.75328C9.17692 3.7631 9.41272 3.94978 9.54045 4.26419C9.56993 4.33297 9.5994 4.40175 9.62888 4.4607C10.7784 6.8679 11.928 9.27511 13.0677 11.6823C13.1758 11.9181 13.3036 12.0066 13.5688 11.9967C14.1682 11.9771 14.7675 11.9869 15.3669 11.9869C15.7304 11.9869 16.0939 11.9869 16.4771 11.9869C16.487 8.48908 16.487 5.03057 16.487 1.53275ZM8.85268 6.31769C8.80355 6.35699 8.77408 6.36681 8.76425 6.38646C8.03718 7.93887 7.30028 9.48144 6.58303 11.0338C6.5339 11.1419 6.5732 11.3188 6.63216 11.4269C7.35923 12.6354 8.0863 13.8341 8.8232 15.0328C8.8625 15.0917 8.90181 15.1408 9.00988 15.2784C9.00988 15.0622 9.00988 14.9443 9.00988 14.8362C9.00988 14.1583 9.00006 13.4902 9.00988 12.8122C9.01971 12.3111 9.27517 12.036 9.76643 12.0066C9.95312 11.9967 10.13 12.0066 10.3167 12.0066C10.7097 12.0066 11.1027 12.0066 11.5645 12.0066C10.6409 10.0611 9.75661 8.20415 8.85268 6.31769Z" fill="#2283F6"/>
<path d="M30.9599 22.7849C30.0953 22.7849 29.5057 22.5688 29.0145 22.1266C28.759 21.9007 28.5134 21.655 28.2874 21.3996C27.9926 21.095 27.9926 20.6627 28.2579 20.3679C28.533 20.0633 28.9752 20.0338 29.3092 20.3188C29.5352 20.5055 29.7219 20.7314 29.9381 20.9378C30.4195 21.3897 31.068 21.4094 31.4806 20.9869C31.8933 20.5644 31.8736 19.9159 31.4119 19.4443C30.4588 18.4913 29.5057 17.5382 28.5527 16.5852C28.2874 16.3199 28.2088 16.0251 28.366 15.6812C28.5232 15.357 28.7983 15.2096 29.152 15.2784C29.3191 15.3079 29.4959 15.4159 29.6236 15.5338C30.6062 16.5066 31.5985 17.4694 32.5614 18.4716C33.3278 19.2773 33.5145 20.2304 33.0723 21.2522C32.64 22.2544 31.8343 22.7358 30.9599 22.7849Z" fill="#2283F6"/>
<path d="M26.9902 3.03603C26.9804 4.27402 25.9488 5.27621 24.7304 5.25656C23.5023 5.23691 22.4902 4.21507 22.5001 2.98691C22.5099 1.73909 23.5416 0.736905 24.7894 0.756555C26.0372 0.786031 27.0001 1.78822 26.9902 3.03603ZM24.7304 3.74346C25.1431 3.75328 25.487 3.42904 25.4968 3.01638C25.5066 2.61354 25.1726 2.26966 24.7599 2.25983C24.3472 2.25001 24.0132 2.57424 24.0033 2.98691C24.0033 3.40939 24.3178 3.73363 24.7304 3.74346Z" fill="#2283F6"/>
<path d="M6.74994 29.25C6.74994 30.488 5.74776 31.4902 4.50977 31.4902C3.27177 31.4902 2.26959 30.4978 2.25977 29.2598C2.25977 28.012 3.2816 26.9804 4.51959 27C5.75758 27.0098 6.74994 28.0218 6.74994 29.25ZM4.51959 28.5033C4.10693 28.4935 3.76304 28.8177 3.75322 29.2304C3.74339 29.6332 4.07745 29.9771 4.49012 29.9869C4.90278 29.9967 5.24667 29.6627 5.25649 29.2598C5.26632 28.857 4.93226 28.5131 4.51959 28.5033Z" fill="#2283F6"/>
<path d="M31.5195 26.2631C32.0108 26.2631 32.4824 26.2631 32.9737 26.2631C32.9737 26.7445 32.9737 27.2162 32.9737 27.7172C32.4922 27.7172 32.0108 27.7172 31.5195 27.7172C31.5195 27.226 31.5195 26.7544 31.5195 26.2631Z" fill="#2283F6"/>
<path d="M31.5195 11.2205C31.5195 10.7391 31.5195 10.2773 31.5195 9.78603C32.001 9.78603 32.4824 9.78603 32.9835 9.78603C32.9835 10.2576 32.9835 10.7293 32.9835 11.2205C32.5021 11.2205 32.0304 11.2205 31.5195 11.2205Z" fill="#2283F6"/>
<path d="M18.1667 21.095C18.825 20.3679 19.5914 19.9552 20.5444 19.9651C21.8021 19.9749 22.7453 20.5448 23.266 21.6845C23.7966 22.8341 23.6689 23.9738 22.8043 24.8974C21.4877 26.3024 20.1023 27.6288 18.7267 28.9847C18.3534 29.3482 17.9604 29.3581 17.587 28.9945C16.2115 27.6386 14.8064 26.2926 13.4898 24.8876C12.4189 23.7478 12.5171 21.94 13.6274 20.8297C14.718 19.7391 16.5259 19.6703 17.7049 20.6823C17.8621 20.8002 17.9997 20.9378 18.1667 21.095ZM18.1176 27.4716C18.2257 27.3734 18.2944 27.3242 18.3534 27.2653C19.4243 26.2041 20.4855 25.1332 21.5466 24.0622C22.1951 23.4138 22.2246 22.5 21.635 21.8908C21.0455 21.2817 20.0925 21.3013 19.4342 21.94C19.1984 22.1659 18.9724 22.4116 18.7267 22.6375C18.3534 22.9913 17.9604 22.9913 17.587 22.6375C17.3414 22.4116 17.1252 22.1659 16.8796 21.94C16.2115 21.3013 15.2682 21.2718 14.6787 21.881C14.0695 22.5 14.1187 23.4039 14.7868 24.072C15.5139 24.7991 16.2409 25.5262 16.968 26.2533C17.3512 26.6659 17.7246 27.0688 18.1176 27.4716Z" fill="#2283F6"/>
<path d="M13.49 15.0229C13.49 15.5142 13.49 15.9858 13.49 16.5065C13.0478 16.5065 12.6155 16.5164 12.1832 16.4967C12.1243 16.4967 12.0162 16.3886 12.0162 16.3199C11.9965 15.8974 12.0064 15.4749 12.0064 15.0229C12.5075 15.0229 12.9692 15.0229 13.49 15.0229Z" fill="#2283F6"/>
<path d="M23.9736 16.4869C23.4529 16.4869 23.0107 16.4869 22.5293 16.4869C22.5293 15.9956 22.5293 15.5142 22.5293 15.0131C23.0107 15.0131 23.4725 15.0131 23.9736 15.0131C23.9736 15.5044 23.9736 15.9956 23.9736 16.4869Z" fill="#2283F6"/>
<path d="M13.4903 31.5197C13.4903 32.0109 13.4903 32.4825 13.4903 32.9738C12.9991 32.9738 12.5275 32.9738 12.0264 32.9738C12.0264 32.4924 12.0264 32.0207 12.0264 31.5197C12.5176 31.5197 12.9991 31.5197 13.4903 31.5197Z" fill="#2283F6"/>
<path d="M23.9736 32.9935C23.4824 32.9935 23.0206 32.9935 22.5293 32.9935C22.5293 32.512 22.5293 32.0306 22.5293 31.5295C23.0009 31.5295 23.4725 31.5295 23.9736 31.5295C23.9736 32.0011 23.9736 32.4727 23.9736 32.9935Z" fill="#2283F6"/>
<path d="M4.50011 20.9869C3.98919 20.9869 3.5274 20.9869 3.03613 20.9869C3.03613 20.5055 3.03613 20.024 3.03613 19.5033C3.46845 19.5033 3.90076 19.4935 4.3429 19.5131C4.40185 19.5131 4.49028 19.6114 4.50011 19.6703C4.50993 20.0928 4.50011 20.5349 4.50011 20.9869Z" fill="#2283F6"/>
<path d="M3.02637 4.47052C3.02637 3.99891 3.02637 3.52729 3.02637 3.0262C3.49798 3.0262 3.9696 3.0262 4.47069 3.0262C4.47069 3.49782 4.47069 3.95961 4.47069 4.47052C4.0089 4.47052 3.52746 4.47052 3.02637 4.47052Z" fill="#2283F6"/>
<path d="M14.9736 3.0262C14.9736 3.51747 14.9736 3.98908 14.9736 4.48035C14.4824 4.48035 14.0107 4.48035 13.5293 4.48035C13.5293 3.98908 13.5293 3.51747 13.5293 3.0262C14.0009 3.0262 14.4725 3.0262 14.9736 3.0262Z" fill="#2283F6"/>
</g>
<defs>
<clipPath id="clip0_41_1019">
<rect width="36" height="36" fill="white"/>
</clipPath>
</defs>
</svg>
