<svg width="24" height="21" viewBox="0 0 24 21" fill="none" xmlns="http://www.w3.org/2000/svg">
<path d="M23.8555 6.50315C23.1089 5.18088 22.3442 3.84058 21.6096 2.54837C21.2183 1.86319 20.8269 1.17802 20.4355 0.486835C20.2609 0.174299 19.9779 0.0060103 19.6287 0.0060103H19.5564C19.5083 0.0060103 19.4661 0.0060103 19.418 0.0060103H16.2629C12.4335 0.0060103 8.47165 0.0060103 4.58204 0C4.58204 0 4.58204 0 4.57602 0C4.05218 0 3.70898 0.20435 3.4561 0.655123C2.6854 2.04951 1.87857 3.45592 1.10186 4.82026C0.812845 5.33114 0.517812 5.84201 0.228801 6.35289C0.180632 6.43704 0.138485 6.51517 0.0903161 6.59931L0 6.77361V7.32055L0.00602107 7.34459C0.1144 7.86749 0.228801 8.33028 0.493728 8.77504C0.861014 9.38809 1.3427 9.84488 1.9147 10.1334C2.01104 10.1815 2.0291 10.2055 2.0291 10.3377C2.02308 13.0424 2.02308 15.7951 2.02308 18.4576V20.0143C2.02308 20.6875 2.33618 21 3.01054 21C6.0572 21 9.10386 21 12.1505 21C15.1009 21 18.0452 21 20.9955 21C21.6698 21 21.9829 20.6875 21.9829 20.0143V18.5117C21.9829 15.8191 21.9829 13.0303 21.9769 10.2896C21.9769 10.2115 21.9769 10.1995 22.0612 10.1514C23.2775 9.48426 23.9277 8.43847 23.994 7.04408C24.006 6.86978 23.9579 6.67745 23.8555 6.50315ZM9.97692 15.2962C9.97692 14.1843 10.8861 13.2768 12 13.2768C13.1139 13.2768 14.0231 14.1843 14.0231 15.2962V19.2931H9.97692V15.2962ZM2.3422 5.9502C2.52283 5.63766 2.69744 5.31912 2.87807 5.00658C3.49222 3.93074 4.12444 2.81883 4.74461 1.71895C4.78675 1.64682 4.79277 1.64081 4.87105 1.64081C9.25439 1.64682 13.71 1.64682 18.0211 1.64682H19.147C19.1711 1.64682 19.2072 1.64682 19.2253 1.64682C19.2253 1.64682 19.2313 1.65283 19.2313 1.65884C19.8876 2.81883 20.5559 4.00286 21.2062 5.13881L21.6638 5.94419H2.3422V5.9502ZM20.5198 8.93131C19.6167 8.97939 18.7857 8.40841 18.5389 7.61505H22.2659C22.0853 8.27018 21.3026 8.88924 20.5198 8.93131ZM12 11.7141C10.0191 11.7141 8.41144 13.3188 8.41144 15.2962V19.3412H3.66683V10.5721C4.77471 10.5361 5.68991 10.0913 6.40642 9.25587C7.0868 10.0733 8.11039 10.5601 9.2002 10.5661C10.3021 10.5721 11.3136 10.1033 12.0241 9.26188C12.7647 10.1274 13.6979 10.5661 14.8058 10.5661C14.8118 10.5661 14.8118 10.5661 14.8179 10.5661C15.9257 10.5601 16.859 10.1153 17.5996 9.24385C17.9488 9.66457 18.3462 9.9771 18.8038 10.1995C19.2855 10.4339 19.7913 10.5541 20.3452 10.5661V19.3351H15.5946V15.2902C15.5886 13.3248 13.9809 11.7141 12 11.7141ZM9.48319 8.91929C8.53186 9.04551 7.64676 8.48054 7.35775 7.60904H11.0788C10.9403 8.10189 10.3683 8.79908 9.48319 8.91929ZM14.8058 8.93732H14.7998C13.8244 8.93131 13.1259 8.21609 12.9513 7.60904H16.6663C16.4797 8.2221 15.7812 8.93732 14.8058 8.93732ZM3.61867 8.93732C3.61264 8.93732 3.61264 8.93732 3.61867 8.93732C2.76969 8.93732 2.04717 8.40841 1.7702 7.61505H5.47316C5.19619 8.4024 4.46764 8.93131 3.61867 8.93732Z" fill="#161F2C"/>
</svg>
