<svg width="35" height="33" viewBox="0 0 35 33" fill="none" xmlns="http://www.w3.org/2000/svg">
<path d="M17.333 15.942C14.9955 15.942 13.083 15.1981 11.5955 13.7101C10.108 12.2222 9.36426 10.3092 9.36426 7.97102C9.36426 5.63285 10.108 3.71981 11.5955 2.23188C13.083 0.743962 14.9955 0 17.333 0C19.6705 0 21.583 0.743962 23.0705 2.23188C24.558 3.71981 25.3018 5.63285 25.3018 7.97102C25.3018 10.3092 24.558 12.2222 23.0705 13.7101C21.583 15.1981 19.6705 15.942 17.333 15.942ZM31.1455 33H3.52051C2.63509 33 1.88249 32.69 1.2627 32.07C0.642904 31.4501 0.333008 30.6973 0.333008 29.8116V28.0048C0.333008 26.6586 0.669466 25.5072 1.34238 24.5507C2.0153 23.5942 2.88301 22.868 3.94551 22.372C6.31842 21.3092 8.59395 20.5121 10.7721 19.9807C12.9502 19.4493 15.1372 19.1836 17.333 19.1836C19.5288 19.1836 21.707 19.4581 23.8674 20.0072C26.0278 20.5564 28.2945 21.3446 30.6674 22.372C31.7653 22.868 32.6507 23.5942 33.3236 24.5507C33.9965 25.5072 34.333 26.6586 34.333 28.0048V29.8116C34.333 30.6973 34.0231 31.4501 33.4033 32.07C32.7835 32.69 32.0309 33 31.1455 33ZM3.52051 29.8116H31.1455V28.0048C31.1455 27.438 30.9773 26.8977 30.6408 26.3841C30.3044 25.8704 29.8882 25.4895 29.3924 25.2415C27.1257 24.1433 25.0538 23.3905 23.1768 22.9831C21.2997 22.5757 19.3518 22.372 17.333 22.372C15.3143 22.372 13.3486 22.5757 11.4361 22.9831C9.52363 23.3905 7.45176 24.1433 5.22051 25.2415C4.72467 25.4895 4.31738 25.8704 3.99863 26.3841C3.67988 26.8977 3.52051 27.438 3.52051 28.0048V29.8116ZM17.333 12.7536C18.7143 12.7536 19.8564 12.3019 20.7596 11.3986C21.6627 10.4952 22.1143 9.35266 22.1143 7.97102C22.1143 6.58937 21.6627 5.44686 20.7596 4.54348C19.8564 3.6401 18.7143 3.18841 17.333 3.18841C15.9518 3.18841 14.8096 3.6401 13.9064 4.54348C13.0033 5.44686 12.5518 6.58937 12.5518 7.97102C12.5518 9.35266 13.0033 10.4952 13.9064 11.3986C14.8096 12.3019 15.9518 12.7536 17.333 12.7536Z" fill="url(#paint0_linear_41_888)"/>
<defs>
<linearGradient id="paint0_linear_41_888" x1="2.65933" y1="2.97717" x2="35.3753" y2="3.65416" gradientUnits="userSpaceOnUse">
<stop stop-color="#F2A031"/>
<stop offset="0.2399" stop-color="#F2A031"/>
<stop offset="0.3542" stop-color="#F8CA53"/>
<stop offset="0.4462" stop-color="#FCE468"/>
<stop offset="0.5005" stop-color="#FDEE70"/>
<stop offset="0.5716" stop-color="#FCEA6D"/>
<stop offset="0.6467" stop-color="#FBDD62"/>
<stop offset="0.7205" stop-color="#F8C952"/>
<stop offset="0.8607" stop-color="#F6BD48"/>
<stop offset="1" stop-color="#F5B743"/>
</linearGradient>
</defs>
</svg>
