<svg width="36" height="36" viewBox="0 0 36 36" fill="none" xmlns="http://www.w3.org/2000/svg">
<g clip-path="url(#clip0_41_1001)">
<path d="M35.9344 1.88368C35.6906 0.805833 34.7062 0.0185383 33.5906 0.0185383C32.4656 0.0185383 31.4719 0.815206 31.2281 1.9118C30.975 3.04587 31.5375 4.17058 32.5969 4.63921C32.7938 4.72356 32.8594 4.81729 32.8594 5.04223C32.85 7.14168 32.85 9.27863 32.85 11.3406V13.1401C32.85 13.4026 32.85 13.665 32.85 13.9368C32.85 14.5648 32.85 15.2115 32.8406 15.8488C32.8312 16.6173 32.2875 17.1984 31.5094 17.264V14.9771C31.5094 13.1589 31.5094 11.3406 31.5094 9.52231C31.5094 8.82874 31.2656 8.58506 30.5625 8.58506C30.375 8.58506 30.1969 8.58506 30.0188 8.58506C29.55 8.58506 29.0719 8.57568 28.6031 8.59443C28.3125 8.6038 28.1812 8.51945 28.0594 8.21953C25.725 2.53038 19.6875 -0.843737 13.6969 0.187244C8.85938 1.01203 5.40938 3.74882 3.42188 8.30388C3.32812 8.51945 3.225 8.58506 2.99062 8.57568C2.7 8.56631 2.4 8.57568 2.10938 8.57568C1.74375 8.57568 1.35938 8.58506 0.99375 8.56631C0.525 8.54757 0.20625 8.7069 0.009375 9.0818L0 9.09118V26.9178V26.9365C0.20625 27.3114 0.515625 27.4708 0.984375 27.452C1.40625 27.4333 1.81875 27.4333 2.25938 27.4426C2.4375 27.4426 2.61562 27.4426 2.80312 27.4426V27.8082C2.80312 28.4174 2.80312 29.0266 2.80312 29.6452C2.80312 31.4072 2.80312 33.2255 2.79375 35.025C2.79375 35.5124 2.95312 35.8123 3.30937 36.0092H28.1813H28.1906C28.5469 35.8123 28.7063 35.5124 28.7063 35.025C28.6969 33.2349 28.6969 31.4072 28.6969 29.6452C28.6969 29.0266 28.6969 28.4174 28.6969 27.7988V27.452H29.2688C29.7 27.452 30.1219 27.452 30.5344 27.452C31.2563 27.452 31.5 27.2083 31.5 26.496C31.5 24.6871 31.5 22.8782 31.5 21.0693V18.7637C33.2812 18.5387 34.3031 17.3859 34.3031 15.6051V14.5835C34.3031 11.4718 34.3031 8.25702 34.2937 5.08909C34.2937 4.85478 34.3312 4.73294 34.575 4.62984C35.6437 4.15184 36.1875 3.02713 35.9344 1.88368ZM32.9062 1.77121C33.0844 1.59313 33.3188 1.49003 33.5719 1.49003C33.5719 1.49003 33.5719 1.49003 33.5813 1.49003C33.825 1.49003 34.0594 1.58376 34.2469 1.76183C34.425 1.93991 34.5281 2.17423 34.5281 2.42729C34.5281 2.68035 34.4344 2.91466 34.2562 3.09274C34.0781 3.27082 33.8438 3.37391 33.5906 3.37391C33.0844 3.37391 32.6531 2.94278 32.6438 2.43666C32.6344 2.19297 32.7281 1.94929 32.9062 1.77121ZM4.29375 34.5096V27.4614H27.1969V34.5002H4.29375V34.5096ZM12.4031 10.0472C12.5063 10.0472 12.6094 10.0472 12.7031 10.0378C13.0688 9.98157 13.3406 9.6629 13.3312 9.288C13.3219 8.93184 13.05 8.63192 12.6937 8.58506C12.6 8.57568 12.5063 8.57568 12.4219 8.57568C12.3938 8.57568 12.3656 8.57568 12.3469 8.57568C10.4344 8.57568 8.52187 8.57568 6.61875 8.57568H4.90312C5.625 6.92611 6.62813 5.55772 7.95938 4.4049C10.0312 2.61474 12.45 1.63999 15.15 1.4994C20.9438 1.21823 25.125 4.95788 26.5781 8.56631H20.5406C20.0531 8.56631 19.575 8.56631 19.0875 8.56631C18.525 8.56631 18.1875 8.83812 18.1781 9.288C18.1781 9.49419 18.2344 9.6629 18.3656 9.78475C18.525 9.94408 18.7781 10.0284 19.1063 10.0284C21.7313 10.0284 24.3563 10.0284 26.9719 10.0284H30.0094V25.9337H1.49062V10.0472H3.34688C6.3375 10.0472 9.31875 10.0472 12.3094 10.0472C12.3375 10.0472 12.3656 10.0472 12.4031 10.0472Z" fill="#2283F6"/>
<path d="M2.80273 12.353C2.80273 16.1208 2.80273 19.8792 2.80273 23.647C2.80273 24.4155 3.03711 24.6405 3.79648 24.6405C7.55586 24.6405 11.3152 24.6405 15.0746 24.6405C19.284 24.6405 23.5027 24.6405 27.7121 24.6405C28.4527 24.6405 28.6965 24.4062 28.6965 23.6657C28.6965 19.898 28.6965 16.1396 28.6965 12.3718C28.6965 11.6032 28.4621 11.3783 27.7027 11.3783H18.759H3.78711C3.04648 11.3783 2.80273 11.6126 2.80273 12.353ZM12.4402 23.1409V12.8592H19.059V23.1409H12.4402ZM10.9309 12.8685V23.1409H4.30273V12.8685H10.9309ZM20.5871 23.1502V12.8779H27.2059V23.1502H20.5871Z" fill="#2283F6"/>
<path d="M15.7498 10.0474C15.9467 10.0474 16.1342 9.96304 16.2748 9.82245C16.4154 9.68186 16.4904 9.48504 16.4904 9.29758C16.4811 8.90394 16.1529 8.5759 15.7592 8.5759C15.7592 8.5759 15.7592 8.5759 15.7498 8.5759C15.5623 8.5759 15.3654 8.66025 15.2342 8.80084C15.0936 8.94143 15.0186 9.13825 15.0186 9.3257C15.0279 9.71935 15.3561 10.038 15.7498 10.0474Z" fill="#2283F6"/>
<path d="M23.6816 30.264C23.5879 30.2546 23.4941 30.2546 23.4098 30.2546C23.3816 30.2546 23.3535 30.2546 23.3254 30.2546C21.1973 30.2546 19.0691 30.2546 16.9504 30.2546H13.5098H8.18477C7.80977 30.2546 7.52852 30.339 7.35977 30.5077C7.23789 30.6295 7.18164 30.7982 7.18164 30.9951C7.18164 31.3325 7.36914 31.7261 8.19414 31.7261C13.2285 31.7261 18.2723 31.7261 23.3066 31.7261C23.3348 31.7261 23.3629 31.7261 23.391 31.7261C23.4191 31.7261 23.4473 31.7261 23.4754 31.7261C23.5504 31.7261 23.6254 31.7261 23.691 31.7167C24.0473 31.6605 24.3098 31.3606 24.3191 31.0044C24.3379 30.6295 24.0566 30.3109 23.6816 30.264Z" fill="#2283F6"/>
<path d="M6.44023 15.9427C6.74961 15.9427 7.06836 15.9427 7.39648 15.9427C7.53711 15.9427 7.67773 15.9427 7.81836 15.9427C7.80898 15.9802 7.79023 16.0271 7.78086 16.0552C7.75273 16.1583 7.71523 16.2427 7.68711 16.327C7.52773 16.7863 7.35898 17.2361 7.19961 17.686C6.87148 18.5952 6.53398 19.5418 6.19648 20.4697C6.02773 20.9383 6.19648 21.3413 6.60898 21.4913C6.69336 21.5288 6.78711 21.5381 6.87148 21.5381C6.96523 21.5381 7.05898 21.5194 7.14336 21.4819C7.34023 21.3882 7.49023 21.2101 7.57461 20.9664C8.20273 19.2419 8.86836 17.3861 9.53398 15.5303C9.63711 15.2398 9.61836 14.968 9.48711 14.7712C9.34648 14.5743 9.09336 14.4619 8.76523 14.4525C8.07148 14.4431 7.31211 14.4431 6.44961 14.4525C5.95273 14.4525 5.61523 14.7524 5.61523 15.1836C5.61523 15.6334 5.94336 15.9334 6.44023 15.9427Z" fill="#2283F6"/>
<path d="M16.9029 14.4712C16.2092 14.4619 15.4498 14.4619 14.5873 14.4712C14.0904 14.4712 13.7529 14.7712 13.7529 15.2023C13.7529 15.6428 14.0811 15.9334 14.5779 15.9427C14.8873 15.9427 15.2061 15.9427 15.5342 15.9427C15.6748 15.9427 15.8154 15.9427 15.9561 15.9427C15.9467 15.9802 15.9279 16.0271 15.9186 16.0552C15.8904 16.1583 15.8623 16.2426 15.8248 16.327C15.6654 16.7769 15.4967 17.2268 15.3373 17.686C15.0092 18.6045 14.6623 19.5512 14.3342 20.479C14.1654 20.9477 14.3342 21.3507 14.7467 21.5007C14.8311 21.5381 14.9248 21.5475 15.0092 21.5475C15.1029 21.5475 15.1967 21.5288 15.2811 21.4913C15.4779 21.3976 15.6279 21.2195 15.7123 20.9758C16.3404 19.2512 17.0061 17.4048 17.6717 15.5397C17.7748 15.2492 17.7561 14.9774 17.6248 14.7805C17.4842 14.5837 17.2311 14.4712 16.9029 14.4712Z" fill="#2283F6"/>
<path d="M25.0687 14.4712C24.3937 14.4619 23.6719 14.4619 22.7156 14.4712C22.4625 14.4712 22.2375 14.5556 22.0875 14.7055C21.9563 14.8368 21.8906 15.0148 21.8906 15.2117C21.8906 15.6522 22.2187 15.9334 22.725 15.9427C23.0344 15.9427 23.3531 15.9427 23.6813 15.9427C23.8125 15.9427 23.9531 15.9427 24.0938 15.9427L24.0469 16.0646C24.0094 16.1677 23.9813 16.252 23.9531 16.3364C23.7938 16.7675 23.6437 17.208 23.4844 17.6392C23.1469 18.5764 22.8 19.5324 22.4625 20.4884C22.2938 20.957 22.4625 21.3507 22.8937 21.51C22.9781 21.5381 23.0625 21.5569 23.1469 21.5569C23.4469 21.5569 23.7188 21.3507 23.8406 21.0039C24.6375 18.8014 25.2469 17.1143 25.8094 15.5397C25.9125 15.2585 25.8938 14.9867 25.7531 14.7899C25.6219 14.5837 25.3781 14.4712 25.0687 14.4712Z" fill="#2283F6"/>
</g>
<defs>
<clipPath id="clip0_41_1001">
<rect width="36" height="36" fill="white"/>
</clipPath>
</defs>
</svg>
