<svg width="36" height="36" viewBox="0 0 36 36" fill="none" xmlns="http://www.w3.org/2000/svg">
<g clip-path="url(#clip0_41_1037)">
<path d="M35.9998 16.9391C35.9998 17.617 35.9998 18.2949 35.9998 18.9817C35.9822 19.0961 35.947 19.2106 35.9382 19.325C35.7356 21.931 35.0047 24.3874 33.6662 26.6324C30.5576 31.8885 26.0135 35.058 19.9108 35.8679C17.4098 36.2025 14.9529 35.912 12.5664 35.102C8.04875 33.5701 4.62311 30.6911 2.27184 26.5532C0.457751 23.3573 -0.290781 19.9061 0.0878886 16.2524C0.448945 12.7484 1.77869 9.62289 3.98906 6.89362C6.8511 3.36317 10.5057 1.10932 14.9969 0.281732C15.6397 0.167278 16.2914 0.0968454 16.9343 0.00880432C17.6388 0.00880432 18.3433 0.00880432 19.0478 0.00880432C19.2855 0.0352166 19.5321 0.0704331 19.7699 0.0968454C23.3188 0.510639 26.4803 1.84006 29.2278 4.11152C32.6799 6.96405 34.8902 10.5825 35.7092 15.011C35.8413 15.6449 35.9118 16.2964 35.9998 16.9391ZM30.1613 18.0044C30.1789 11.4541 24.5957 5.85473 18.0174 5.83712C11.4656 5.81071 5.8736 11.3837 5.83838 17.9692C5.80315 24.5194 11.4215 30.1541 17.9998 30.1541C24.5605 30.1541 30.1525 24.5811 30.1613 18.0044ZM31.6231 18.7087C31.4382 19.6684 31.3149 20.6104 31.0595 21.5172C30.8041 22.4329 30.4167 23.3133 30.0732 24.2465C30.8746 24.7043 31.72 25.1974 32.5918 25.6992C33.7806 23.507 34.4411 21.2003 34.5644 18.7175C33.5605 18.7087 32.583 18.7087 31.6231 18.7087ZM18.7219 34.5649C21.2053 34.4417 23.5125 33.7726 25.7053 32.584C25.2033 31.7124 24.7102 30.8672 24.217 30.0044C22.4822 30.9112 20.6593 31.4219 18.7307 31.5363C18.7219 32.5576 18.7219 33.5525 18.7219 34.5649ZM11.7562 5.91636C12.6897 5.573 13.5615 5.18562 14.4685 4.93911C15.3844 4.68379 16.3354 4.56053 17.2865 4.37564C17.2865 3.4248 17.2865 2.42993 17.2865 1.42627C14.8032 1.54952 12.4959 2.21864 10.312 3.40719C10.8051 4.2788 11.2895 5.11519 11.7562 5.91636ZM18.7219 4.37564C19.6906 4.56053 20.6417 4.68379 21.5399 4.93911C22.4558 5.19442 23.3364 5.58181 24.2523 5.92517C24.719 5.11519 25.2033 4.26999 25.7053 3.40719C23.4949 2.22744 21.1965 1.54952 18.7219 1.43507C18.7219 2.44754 18.7219 3.4248 18.7219 4.37564ZM5.91763 11.7447C5.10746 11.2781 4.27086 10.7938 3.40785 10.292C2.22781 12.4842 1.54973 14.7821 1.43525 17.2737C2.44797 17.2737 3.43427 17.2737 4.37654 17.2737C4.56147 16.3316 4.68476 15.3896 4.94014 14.4828C5.19552 13.5671 5.57419 12.6867 5.91763 11.7447ZM34.5732 17.2737C34.4499 14.7909 33.7806 12.4842 32.6006 10.292C31.7288 10.7938 30.8834 11.2869 30.0204 11.7799C30.9274 13.5143 31.4382 15.3368 31.5527 17.2649C32.5742 17.2737 33.5605 17.2737 34.5732 17.2737ZM1.43525 18.7175C1.56734 21.2179 2.22781 23.5158 3.41666 25.6992C4.28848 25.1974 5.13388 24.7131 5.99689 24.2113C5.08104 22.4769 4.58789 20.6456 4.45579 18.7175C3.41666 18.7175 2.43916 18.7175 1.43525 18.7175ZM10.3032 32.584C12.5135 33.7726 14.812 34.4417 17.2865 34.5561C17.2865 33.5437 17.2865 32.5576 17.2865 31.5363C15.3491 31.4219 13.5262 30.9024 11.7914 30.0044C11.2895 30.8848 10.8051 31.7212 10.3032 32.584ZM6.719 10.5825C7.76695 9.03302 9.05266 7.75642 10.585 6.70873C10.0742 5.82832 9.58984 4.98313 9.08789 4.12913C7.08887 5.46735 5.4509 7.09611 4.12996 9.08584C5.00178 9.58768 5.84718 10.0807 6.719 10.5825ZM31.8697 9.08584C30.5311 7.0785 28.902 5.44974 26.9118 4.12913C26.4098 5.00073 25.9167 5.84593 25.4499 6.65591C26.172 7.27219 26.903 7.82685 27.5458 8.46955C28.1887 9.11225 28.7347 9.84299 29.3423 10.5473C30.1701 10.0719 31.0067 9.58768 31.8697 9.08584ZM4.12996 26.9054C5.46851 28.9127 7.09767 30.5503 9.08789 31.8621C9.58984 30.9905 10.0742 30.1453 10.5761 29.2825C9.03505 28.2348 7.74934 26.9582 6.7102 25.4175C5.84718 25.9105 5.01059 26.3947 4.12996 26.9054ZM29.3423 25.4439C28.7259 26.157 28.1799 26.8877 27.537 27.5304C26.8942 28.1731 26.1632 28.719 25.4499 29.3353C25.9255 30.1629 26.4186 30.9993 26.9118 31.8621C28.9196 30.5238 30.5576 28.8951 31.8697 26.9054C30.9891 26.3947 30.1525 25.9105 29.3423 25.4439Z" fill="#2283F6"/>
<path d="M18.7048 23.0139C19.8584 23.6654 20.3075 24.537 20.0345 25.5583C19.7879 26.4828 18.9337 27.1343 17.9915 27.1255C17.0404 27.1166 16.2038 26.4563 15.966 25.5231C15.7106 24.5018 16.1598 23.6302 17.2958 23.0139C17.2958 22.5033 17.2958 21.9927 17.2958 21.438C15.8604 21.0594 14.9357 20.1526 14.557 18.6823C14.0727 18.6823 13.606 18.6647 13.1392 18.6911C13.0424 18.6999 12.9191 18.832 12.8662 18.9288C12.4259 19.7388 11.5717 20.1878 10.7087 20.0558C9.77523 19.9149 9.08834 19.2458 8.92102 18.3213C8.7449 17.3441 9.32611 16.3316 10.2684 15.9971C11.2811 15.6361 12.3555 16.0411 12.8398 16.9831C12.9543 17.212 13.0864 17.2737 13.3153 17.2649C13.7204 17.2472 14.1343 17.256 14.5218 17.256C14.6803 16.8951 14.7948 16.5341 14.9797 16.2172C15.4465 15.3984 16.1422 14.8525 17.0492 14.5972C17.2341 14.5444 17.3222 14.4828 17.3134 14.2715C17.2958 13.8313 17.3046 13.3822 17.3046 12.9508C16.151 12.3081 15.7018 11.4277 15.9748 10.4065C16.2214 9.48202 17.0756 8.83052 18.0179 8.83932C18.969 8.84813 19.8056 9.50843 20.0433 10.4417C20.2987 11.4629 19.8496 12.3346 18.7136 12.9508C18.7136 13.4615 18.7136 13.9721 18.7136 14.5268C20.149 14.9054 21.0737 15.8122 21.4523 17.2825C21.9367 17.2825 22.4034 17.3001 22.8701 17.2737C22.967 17.2649 23.0903 17.1328 23.1431 17.0359C23.5834 16.226 24.4377 15.777 25.3007 15.909C26.2341 16.0499 26.921 16.719 27.0883 17.6434C27.2645 18.6207 26.6833 19.6332 25.741 19.9677C24.7283 20.3287 23.6539 19.9237 23.1696 18.9817C23.0551 18.7527 22.923 18.6911 22.694 18.6999C22.2889 18.7175 21.875 18.7087 21.4876 18.7087C21.329 19.0697 21.2146 19.4307 21.0296 19.7476C20.5629 20.5664 19.8672 21.1122 18.9602 21.3676C18.7752 21.4204 18.6872 21.482 18.696 21.6933C18.7224 22.1335 18.7048 22.5825 18.7048 23.0139ZM20.1138 18.0132C20.1226 16.8687 19.1803 15.909 18.0267 15.8914C16.8819 15.8738 15.922 16.8158 15.8956 17.9692C15.878 19.1225 16.8379 20.0998 18.0003 20.1086C19.1451 20.1086 20.0962 19.1577 20.1138 18.0132ZM18.0179 10.2656C17.648 10.2568 17.3134 10.5737 17.3046 10.9435C17.2958 11.3133 17.6128 11.6478 17.9827 11.6566C18.3525 11.6654 18.6872 11.3485 18.696 10.9787C18.7136 10.6178 18.3878 10.2832 18.0179 10.2656ZM10.9641 17.3001C10.5942 17.3001 10.2684 17.6346 10.2684 18.0044C10.2684 18.3742 10.603 18.6999 10.9729 18.6999C11.3427 18.6999 11.6686 18.3654 11.6686 17.9956C11.6686 17.6258 11.3339 17.3001 10.9641 17.3001ZM25.7322 17.9956C25.7322 17.6258 25.4063 17.3001 25.0365 17.2913C24.6666 17.2913 24.3408 17.617 24.332 17.9868C24.332 18.3566 24.6578 18.6823 25.0277 18.6911C25.3975 18.6911 25.7322 18.3654 25.7322 17.9956ZM18.7048 25.0389C18.7136 24.6691 18.3878 24.3346 18.0179 24.3257C17.648 24.3169 17.3134 24.6427 17.3046 25.0125C17.2958 25.3822 17.6216 25.7168 17.9915 25.7256C18.3613 25.7344 18.696 25.4087 18.7048 25.0389Z" fill="#2283F6"/>
<path d="M28.1272 15.1871C28.1272 15.504 27.9159 15.7858 27.6076 15.8562C27.2906 15.9266 27.0264 15.821 26.8503 15.5481C26.7799 15.4336 26.727 15.3015 26.683 15.1695C26.2867 13.9633 25.6615 12.898 24.8249 11.9384C24.3934 11.4453 24.3669 11.0492 24.7104 10.741C25.0626 10.4329 25.4413 10.5121 25.8816 11.0051C26.8855 12.1321 27.6164 13.4087 28.0656 14.8525C28.0832 14.923 28.1096 14.9846 28.1184 15.055C28.1272 15.0902 28.1272 15.1431 28.1272 15.1871Z" fill="#2283F6"/>
<path d="M22.9406 8.86573C23.3104 8.87454 23.6362 9.20909 23.6186 9.57887C23.6098 9.94864 23.2752 10.2744 22.9053 10.2568C22.5355 10.248 22.2096 9.91342 22.2272 9.54365C22.2361 9.17388 22.5707 8.85693 22.9406 8.86573Z" fill="#2283F6"/>
</g>
<defs>
<clipPath id="clip0_41_1037">
<rect width="36" height="36" fill="white"/>
</clipPath>
</defs>
</svg>
