<svg width="29" height="28" viewBox="0 0 29 28" fill="none" xmlns="http://www.w3.org/2000/svg">
<path d="M0 26.3093C0 20.1187 0 13.9281 0 7.74151C0.415975 6.67597 0.836029 6.38832 1.99831 6.38832C9.83251 6.38832 17.6667 6.38832 25.4968 6.38832C26.6714 6.38832 27.3198 7.02845 27.3239 8.19122C27.3279 9.49579 27.3239 10.7963 27.3239 12.1009C27.3239 12.1981 27.3157 12.2994 27.3075 12.4128C27.173 12.4128 27.071 12.4128 26.9691 12.4128C23.9023 12.4128 20.8355 12.4088 17.7687 12.4128C16.1333 12.4169 14.9262 13.5756 14.9017 15.1881C14.8813 16.3954 14.8772 17.6068 14.9139 18.8141C14.9262 19.195 15.0281 19.6001 15.1953 19.9445C15.7173 21.006 16.6227 21.5043 17.7972 21.5083C20.8559 21.5164 23.9145 21.5124 26.9691 21.5124C27.0792 21.5124 27.1893 21.5124 27.2994 21.5124C27.3116 21.5853 27.3198 21.6218 27.3198 21.6582C27.3198 23.1006 27.3361 24.5469 27.3157 25.9892C27.2994 27.0021 26.6102 27.6422 25.5662 27.6422C17.63 27.6463 9.69385 27.6463 1.75362 27.6341C1.42737 27.6341 1.0848 27.5247 0.78709 27.387C0.342568 27.1844 0.146815 26.755 0 26.3093Z" fill="url(#paint0_linear_41_862)"/>
<path d="M22.5482 13.5432C24.0979 13.5432 25.6435 13.5432 27.1932 13.5432C28.3351 13.5432 28.9998 14.2076 28.9998 15.3461C28.9998 16.4359 28.9998 17.5217 28.9998 18.6115C28.9958 19.7095 28.3269 20.382 27.2177 20.382C24.0856 20.3861 20.9495 20.3861 17.8175 20.382C16.7082 20.382 16.0394 19.7054 16.0353 18.6075C16.0312 17.5096 16.0312 16.4116 16.0353 15.3177C16.0394 14.2198 16.7163 13.5472 17.8215 13.5432C19.3957 13.5391 20.9699 13.5432 22.5482 13.5432ZM18.9104 17.0193C18.8982 17.8296 19.1633 18.093 19.9789 18.093C20.0645 18.093 20.1502 18.097 20.2317 18.093C20.713 18.0727 21.0351 17.7567 21.0678 17.2786C21.1575 15.9781 20.6029 15.8647 19.5792 15.9619C19.2163 15.9984 18.9512 16.2901 18.9145 16.6547C18.8982 16.7762 18.9104 16.8978 18.9104 17.0193Z" fill="url(#paint1_linear_41_862)"/>
<path d="M24.0002 5.24985C19.5264 5.24985 15.1057 5.24985 10.6849 5.24985C10.6808 5.2377 10.6768 5.2296 10.6768 5.21744C10.7869 5.18098 10.897 5.14046 11.0112 5.10805C14.4572 4.17217 17.8992 3.24033 21.3453 2.3085C22.4219 2.01679 23.2335 2.47056 23.5353 3.54014C23.6903 4.09924 23.8412 4.65834 24.0002 5.24985Z" fill="url(#paint2_linear_41_862)"/>
<path d="M5.31836 5.20529C5.39584 5.16478 5.47333 5.12021 5.55082 5.0797C8.82968 3.46722 12.1045 1.85474 15.3793 0.242265C16.411 -0.264166 17.2878 0.0315899 17.8017 1.05256C17.973 1.39693 18.1443 1.73725 18.3278 2.10593C18.2136 2.14645 18.1198 2.18291 18.0219 2.20722C14.3434 3.20793 10.6649 4.21674 6.97818 5.18909C6.46025 5.32684 5.88523 5.25796 5.33467 5.28632C5.33059 5.25796 5.32652 5.23366 5.31836 5.20529Z" fill="url(#paint3_linear_41_862)"/>
<defs>
<linearGradient id="paint0_linear_41_862" x1="1.86968" y1="8.30601" x2="28.1574" y2="8.98474" gradientUnits="userSpaceOnUse">
<stop stop-color="#F2A031"/>
<stop offset="0.2399" stop-color="#F2A031"/>
<stop offset="0.3542" stop-color="#F8CA53"/>
<stop offset="0.4462" stop-color="#FCE468"/>
<stop offset="0.5005" stop-color="#FDEE70"/>
<stop offset="0.5716" stop-color="#FCEA6D"/>
<stop offset="0.6467" stop-color="#FBDD62"/>
<stop offset="0.7205" stop-color="#F8C952"/>
<stop offset="0.8607" stop-color="#F6BD48"/>
<stop offset="1" stop-color="#F5B743"/>
</linearGradient>
<linearGradient id="paint1_linear_41_862" x1="16.9195" y1="14.1588" x2="29.3847" y2="14.6332" gradientUnits="userSpaceOnUse">
<stop stop-color="#F2A031"/>
<stop offset="0.2399" stop-color="#F2A031"/>
<stop offset="0.3542" stop-color="#F8CA53"/>
<stop offset="0.4462" stop-color="#FCE468"/>
<stop offset="0.5005" stop-color="#FDEE70"/>
<stop offset="0.5716" stop-color="#FCEA6D"/>
<stop offset="0.6467" stop-color="#FBDD62"/>
<stop offset="0.7205" stop-color="#F8C952"/>
<stop offset="0.8607" stop-color="#F6BD48"/>
<stop offset="1" stop-color="#F5B743"/>
</linearGradient>
<linearGradient id="paint2_linear_41_862" x1="11.5884" y1="2.49507" x2="24.3147" y2="3.61974" gradientUnits="userSpaceOnUse">
<stop stop-color="#F2A031"/>
<stop offset="0.2399" stop-color="#F2A031"/>
<stop offset="0.3542" stop-color="#F8CA53"/>
<stop offset="0.4462" stop-color="#FCE468"/>
<stop offset="0.5005" stop-color="#FDEE70"/>
<stop offset="0.5716" stop-color="#FCEA6D"/>
<stop offset="0.6467" stop-color="#FBDD62"/>
<stop offset="0.7205" stop-color="#F8C952"/>
<stop offset="0.8607" stop-color="#F6BD48"/>
<stop offset="1" stop-color="#F5B743"/>
</linearGradient>
<linearGradient id="paint3_linear_41_862" x1="6.20848" y1="0.476918" x2="18.7014" y2="1.0944" gradientUnits="userSpaceOnUse">
<stop stop-color="#F2A031"/>
<stop offset="0.2399" stop-color="#F2A031"/>
<stop offset="0.3542" stop-color="#F8CA53"/>
<stop offset="0.4462" stop-color="#FCE468"/>
<stop offset="0.5005" stop-color="#FDEE70"/>
<stop offset="0.5716" stop-color="#FCEA6D"/>
<stop offset="0.6467" stop-color="#FBDD62"/>
<stop offset="0.7205" stop-color="#F8C952"/>
<stop offset="0.8607" stop-color="#F6BD48"/>
<stop offset="1" stop-color="#F5B743"/>
</linearGradient>
</defs>
</svg>
