<svg width="45" height="51" viewBox="0 0 45 51" fill="none" xmlns="http://www.w3.org/2000/svg">
<path d="M22.4132 0C22.6841 0.225719 22.9937 0.412183 23.2259 0.667344C26.5539 4.20034 29.8625 7.73334 33.1905 11.2663C33.5485 11.6393 33.713 12.0514 33.713 12.5814C33.7033 15.4372 33.7033 18.2931 33.7033 21.1489C33.7033 21.3256 33.7033 21.5022 33.7033 21.6298C34.6997 21.9929 35.6769 22.2677 36.5863 22.6995C41.0752 24.8291 43.8518 28.3916 44.7708 33.3279C45.9221 39.5303 42.6425 45.9486 37.0313 48.6866C30.4817 51.886 22.8582 49.7367 18.9014 43.5638C18.7176 43.2792 18.5338 43.1811 18.2049 43.1811C14.0642 43.1909 9.93322 43.1909 5.79256 43.1909C3.17079 43.1909 1.09079 41.7875 0.316837 39.4322C0.113675 38.8237 0.00725582 38.1564 0.00725582 37.5185C-0.00241861 26.9097 -0.00241861 16.3205 0.00725582 5.72149C0.00725582 2.83621 1.87442 0.60846 4.66065 0.078511C4.7187 0.0686971 4.77675 0.0294416 4.83479 0C10.6878 0 16.5505 0 22.4132 0ZM21.1362 2.10998C20.9427 2.10017 20.8169 2.08054 20.6912 2.08054C15.7185 2.08054 10.7459 2.08054 5.76354 2.08054C5.39591 2.08054 5.01861 2.1198 4.67033 2.21794C3.016 2.67919 2.05823 4.00406 2.05823 5.8687C2.04856 16.3499 2.04856 26.8311 2.06791 37.3124C2.06791 37.911 2.19368 38.5685 2.44521 39.1083C3.11275 40.5509 4.35107 41.0907 5.87963 41.0809C9.61396 41.0711 13.3483 41.0809 17.0826 41.0809C17.2374 41.0809 17.3922 41.0809 17.6244 41.0809C16.5602 38.2251 16.3474 35.3692 17.0149 32.4152C16.8021 32.4152 16.6279 32.4152 16.4538 32.4152C13.861 32.4152 11.2683 32.4152 8.67554 32.4152C8.45303 32.4152 8.22084 32.3956 8.00801 32.3367C7.55331 32.1993 7.28242 31.7773 7.32112 31.2866C7.35014 30.8254 7.6694 30.4525 8.1241 30.374C8.34661 30.3347 8.56912 30.3347 8.80131 30.3347C11.6166 30.3347 14.4318 30.3249 17.2568 30.3445C17.576 30.3445 17.7308 30.2464 17.8759 29.952C18.2822 29.157 18.7369 28.3915 19.1723 27.6064C19.2594 27.4592 19.3464 27.312 19.4819 27.0863C19.1916 27.0863 18.9982 27.0863 18.8143 27.0863C15.4863 27.0863 12.1487 27.0863 8.82066 27.0863C8.59815 27.0863 8.36596 27.0765 8.15312 27.0372C7.6694 26.9489 7.35982 26.576 7.3308 26.0853C7.31145 25.5946 7.58233 25.1824 8.05638 25.0646C8.28856 25.0058 8.53043 24.9861 8.77229 24.9861C12.7775 24.9861 16.7924 24.9763 20.7976 24.9861C21.2426 24.9861 21.5812 24.8782 21.9295 24.5936C23.8934 22.9841 26.1379 21.9635 28.6436 21.5807C29.6207 21.4335 30.6171 21.4139 31.6233 21.3354C31.6233 18.6856 31.6233 15.9966 31.6233 13.2585C31.4201 13.2585 31.246 13.2585 31.0718 13.2585C29.3691 13.2585 27.6568 13.2684 25.9541 13.2585C23.0614 13.2389 21.1652 11.2958 21.1459 8.36142C21.1459 7.54687 21.1459 6.73232 21.1459 5.90795C21.1362 4.67141 21.1362 3.41523 21.1362 2.10998ZM30.83 48.0782C37.515 48.0291 42.923 42.5235 42.9037 35.7814C42.8843 28.9804 37.4183 23.465 30.7526 23.5141C24.0676 23.5631 18.6402 29.108 18.6982 35.8305C18.766 42.6315 24.2127 48.1273 30.83 48.0782ZM23.1872 3.67039C23.1872 5.4467 23.1582 7.05618 23.1969 8.66565C23.2259 10.1279 24.2901 11.1486 25.7412 11.1682C26.7861 11.178 27.8309 11.1682 28.8757 11.1682C29.2821 11.1682 29.6884 11.1682 30.2205 11.1682C27.8503 8.64603 25.5671 6.20237 23.1872 3.67039Z" fill="url(#paint0_linear_41_881)"/>
<path d="M13.5509 19.775C15.273 19.775 16.995 19.7651 18.7171 19.7848C19.3459 19.7946 19.7909 20.2362 19.7909 20.8054C19.8006 21.3746 19.3556 21.8064 18.7267 21.8555C18.601 21.8653 18.4655 21.8555 18.3398 21.8555C15.9889 21.8555 13.6477 21.8555 11.2968 21.8555C10.3293 21.8555 9.36189 21.8555 8.40412 21.8555C7.94942 21.8555 7.58179 21.6592 7.39798 21.2274C7.23351 20.8447 7.25286 20.4031 7.58179 20.1479C7.85268 19.9418 8.23965 19.8044 8.57826 19.7946C10.2423 19.7455 11.8966 19.7651 13.5509 19.775C13.5509 19.7651 13.5509 19.7651 13.5509 19.775Z" fill="url(#paint1_linear_41_881)"/>
<path d="M35.4634 31.7774C35.4924 32.5134 35.1441 32.9747 34.5346 33.0237C33.8961 33.0728 33.4898 32.641 33.4124 31.8363C33.306 30.6488 32.5514 29.6674 31.4678 29.4319C30.3649 29.1865 29.3588 29.4319 28.6235 30.4918C28.0527 31.3161 27.9947 32.2288 28.4107 33.1415C28.8751 34.1523 29.7168 34.643 30.8003 34.6823C31.9709 34.7215 33.0061 35.1043 33.8768 35.8992C35.1731 37.0867 35.7052 38.5784 35.386 40.3056C35.057 42.0918 34.0025 43.3381 32.2998 43.927C31.8451 44.084 31.6903 44.2803 31.7387 44.7415C31.7677 44.9672 31.729 45.2028 31.6807 45.4187C31.5742 45.8897 31.1582 46.2038 30.6939 46.194C30.2488 46.1841 29.8328 45.8799 29.7458 45.4383C29.6781 45.1242 29.6684 44.7906 29.6781 44.4667C29.6877 44.1723 29.5813 44.0447 29.3008 43.9564C27.4046 43.289 26.1759 41.6207 26.0888 39.6285C26.0598 39.02 26.3597 38.5882 26.8918 38.4606C27.3465 38.3429 27.8689 38.598 28.0334 39.0495C28.1205 39.2752 28.1398 39.5205 28.1785 39.7659C28.3527 41.1594 29.4942 42.1703 30.8583 42.131C32.2128 42.0918 33.3253 40.9828 33.4027 39.6088C33.4801 38.2055 32.503 36.9885 31.1002 36.8315C30.1715 36.7236 29.2427 36.6352 28.4204 36.1151C26.8338 35.1239 26.0018 33.6813 26.0985 31.797C26.2049 29.7557 27.2691 28.3131 29.1556 27.5672C29.5233 27.42 29.6877 27.2826 29.6684 26.8606C29.649 26.2227 29.9489 25.8105 30.4133 25.683C30.8777 25.5554 31.3614 25.732 31.5646 26.1638C31.671 26.3896 31.729 26.6643 31.7194 26.9097C31.7 27.263 31.8451 27.3808 32.1547 27.4691C34.0702 28.0383 35.3763 29.7753 35.4634 31.7774Z" fill="url(#paint2_linear_41_881)"/>
<defs>
<linearGradient id="paint0_linear_41_881" x1="3.07896" y1="4.52526" x2="46.384" y2="5.30554" gradientUnits="userSpaceOnUse">
<stop stop-color="#F2A031"/>
<stop offset="0.2399" stop-color="#F2A031"/>
<stop offset="0.3542" stop-color="#F8CA53"/>
<stop offset="0.4462" stop-color="#FCE468"/>
<stop offset="0.5005" stop-color="#FDEE70"/>
<stop offset="0.5716" stop-color="#FCEA6D"/>
<stop offset="0.6467" stop-color="#FBDD62"/>
<stop offset="0.7205" stop-color="#F8C952"/>
<stop offset="0.8607" stop-color="#F6BD48"/>
<stop offset="1" stop-color="#F5B743"/>
</linearGradient>
<linearGradient id="paint1_linear_41_881" x1="8.15174" y1="19.9519" x2="20.0095" y2="21.3707" gradientUnits="userSpaceOnUse">
<stop stop-color="#F2A031"/>
<stop offset="0.2399" stop-color="#F2A031"/>
<stop offset="0.3542" stop-color="#F8CA53"/>
<stop offset="0.4462" stop-color="#FCE468"/>
<stop offset="0.5005" stop-color="#FDEE70"/>
<stop offset="0.5716" stop-color="#FCEA6D"/>
<stop offset="0.6467" stop-color="#FBDD62"/>
<stop offset="0.7205" stop-color="#F8C952"/>
<stop offset="0.8607" stop-color="#F6BD48"/>
<stop offset="1" stop-color="#F5B743"/>
</linearGradient>
<linearGradient id="paint2_linear_41_881" x1="26.7294" y1="27.4965" x2="35.7673" y2="27.5794" gradientUnits="userSpaceOnUse">
<stop stop-color="#F2A031"/>
<stop offset="0.2399" stop-color="#F2A031"/>
<stop offset="0.3542" stop-color="#F8CA53"/>
<stop offset="0.4462" stop-color="#FCE468"/>
<stop offset="0.5005" stop-color="#FDEE70"/>
<stop offset="0.5716" stop-color="#FCEA6D"/>
<stop offset="0.6467" stop-color="#FBDD62"/>
<stop offset="0.7205" stop-color="#F8C952"/>
<stop offset="0.8607" stop-color="#F6BD48"/>
<stop offset="1" stop-color="#F5B743"/>
</linearGradient>
</defs>
</svg>
