<svg width="36" height="36" viewBox="0 0 36 36" fill="none" xmlns="http://www.w3.org/2000/svg">
<g clip-path="url(#clip0_41_1044)">
<path d="M-0.000390625 0.498563C0.205859 0.122289 0.524609 0 0.955859 0C3.14961 0.0188137 5.33398 0.00940685 7.52773 0.00940685C8.20273 0.00940685 8.43711 0.244578 8.43711 0.921871C8.43711 1.30755 8.43711 1.69323 8.43711 2.12595C9.12148 2.12595 9.78711 2.12595 10.4527 2.12595C11.1184 2.12595 11.3621 2.37053 11.3621 3.03841C11.3621 4.28011 11.3621 5.53123 11.3621 6.77293C11.3621 6.90462 11.3621 7.02691 11.3621 7.17742C11.9996 7.17742 12.6184 7.17742 13.284 7.17742C13.284 6.76352 13.284 6.34021 13.284 5.92631C13.284 5.34309 13.5371 5.0891 14.1184 5.0891C16.3684 5.0891 18.6184 5.0891 20.8684 5.0891C21.4402 5.0891 21.7121 5.3525 21.7121 5.92631C21.7215 6.30259 21.7121 6.67886 21.7215 7.05513C21.7215 7.07395 21.7309 7.10217 21.759 7.17742C22.0309 7.17742 22.3121 7.17742 22.6027 7.17742C23.0434 7.17742 23.4934 7.16802 23.934 7.18683C24.3559 7.20564 24.5996 7.45022 24.6277 7.87353C24.6371 7.97701 24.6277 8.08048 24.6277 8.19336C24.6277 14.7499 24.6277 21.3159 24.6277 27.8725C24.6277 28.7191 24.4402 28.9072 23.5965 28.9072C23.0246 28.9072 22.4527 28.9072 21.8715 28.9072C21.834 28.9072 21.8059 28.9166 21.7121 28.9261C21.7121 29.2741 21.7121 29.641 21.7121 29.9984C21.7121 30.6475 21.4684 30.9015 20.8309 30.9015C18.609 30.9015 16.3777 30.9015 14.1559 30.9015C13.5277 30.9015 13.284 30.6569 13.284 30.0267C13.284 29.6316 13.284 29.2271 13.284 28.8132C12.6465 28.8132 12.0277 28.8132 11.3809 28.8132C11.3715 28.9355 11.3621 29.0577 11.3621 29.18C11.3621 30.4217 11.3621 31.6728 11.3621 32.9146C11.3621 33.6389 11.1371 33.8646 10.4152 33.8646C9.76836 33.8646 9.13086 33.8646 8.43711 33.8646C8.43711 34.288 8.43711 34.6924 8.43711 35.0969C8.43711 35.7272 8.19336 35.9812 7.56523 35.9812C5.36211 35.9812 3.15898 35.9718 0.955859 35.9906C0.524609 35.9906 0.205859 35.8683 -0.000390625 35.492C-0.000390625 33.9399 -0.000390625 32.3878 -0.000390625 30.8356C0.205859 30.45 0.524609 30.3277 0.955859 30.3371C3.15898 30.3559 5.36211 30.3465 7.56523 30.3465C8.19336 30.3465 8.43711 30.5911 8.43711 31.2307C8.43711 31.6352 8.43711 32.0397 8.43711 32.4536C8.96211 32.4536 9.44023 32.4536 9.93711 32.4536C9.93711 29.5469 9.93711 26.6496 9.93711 23.7429C9.43086 23.7429 8.94336 23.7429 8.43711 23.7429C8.43711 24.1474 8.43711 24.5331 8.43711 24.9187C8.43711 25.596 8.20273 25.8312 7.52773 25.8312C5.33398 25.8312 3.14961 25.8218 0.955859 25.8406C0.524609 25.8406 0.205859 25.7183 -0.000390625 25.342C-0.000390625 23.7899 -0.000390625 22.2378 -0.000390625 20.6857C0.205859 20.3 0.524609 20.1777 0.955859 20.1871C3.15898 20.2059 5.36211 20.1965 7.56523 20.1965C8.19336 20.1965 8.43711 20.4411 8.43711 21.0807C8.43711 21.4852 8.43711 21.8897 8.43711 22.313C9.13086 22.313 9.77773 22.313 10.4152 22.313C11.1277 22.313 11.3621 22.5388 11.3621 23.2631C11.3621 24.5048 11.3621 25.7559 11.3621 26.9976C11.3621 27.1199 11.3715 27.2422 11.3809 27.3645C12.0277 27.3645 12.6465 27.3645 13.284 27.3645C13.284 26.9412 13.284 26.5461 13.284 26.151C13.284 25.5208 13.5277 25.2762 14.1559 25.2762C16.3777 25.2762 18.609 25.2762 20.8309 25.2762C21.4684 25.2762 21.7121 25.5302 21.7121 26.1793C21.7121 26.612 21.7121 27.0447 21.7121 27.5056C22.1434 27.5056 22.5277 27.5056 22.9121 27.5056C23.0059 27.5056 23.0902 27.4868 23.1934 27.4868C23.1934 21.1842 23.1934 14.9099 23.1934 8.62608C22.6871 8.62608 22.2184 8.62608 21.7121 8.62608C21.7121 9.05879 21.7121 9.46329 21.7121 9.87719C21.7121 10.4792 21.4496 10.7426 20.859 10.7426C18.609 10.7426 16.359 10.7426 14.109 10.7426C13.5277 10.7426 13.284 10.4886 13.2746 9.896C13.2746 9.4821 13.2746 9.05879 13.2746 8.64489C12.609 8.64489 11.9902 8.64489 11.3527 8.64489C11.3527 8.7954 11.3527 8.9271 11.3527 9.04939C11.3527 10.2911 11.3527 11.5422 11.3527 12.7839C11.3527 13.4612 11.109 13.6964 10.4434 13.6964C9.77773 13.6964 9.11211 13.6964 8.42773 13.6964C8.42773 14.1291 8.42773 14.5148 8.42773 14.9004C8.42773 15.5777 8.19336 15.8129 7.51836 15.8129C5.32461 15.8129 3.14023 15.8035 0.946484 15.8223C0.515234 15.8223 0.196484 15.7 -0.00976562 15.3238C-0.00976562 13.7716 -0.00976562 12.2195 -0.00976562 10.6674C0.196484 10.2817 0.515234 10.1594 0.946484 10.1688C3.14961 10.1876 5.35273 10.1782 7.55586 10.1782C8.18398 10.1782 8.42773 10.4228 8.42773 11.0625C8.42773 11.4669 8.42773 11.8714 8.42773 12.2853C8.95273 12.2853 9.43086 12.2853 9.92773 12.2853C9.92773 9.37863 9.92773 6.48132 9.92773 3.5746C9.42148 3.5746 8.93398 3.5746 8.42773 3.5746C8.42773 3.9791 8.42773 4.36478 8.42773 4.75046C8.42773 5.42775 8.19336 5.66292 7.51836 5.66292C5.32461 5.66292 3.14023 5.65351 0.946484 5.67233C0.515234 5.67233 0.196484 5.55004 -0.00976562 5.17377C-0.000390625 3.60282 -0.000390625 2.05069 -0.000390625 0.498563ZM7.01211 1.43925C5.14648 1.43925 3.29023 1.43925 1.43398 1.43925C1.43398 2.37993 1.43398 3.3018 1.43398 4.21427C3.30898 4.21427 5.16523 4.21427 7.01211 4.21427C7.01211 3.27358 7.01211 2.37053 7.01211 1.43925ZM14.6996 9.29396C16.5934 9.29396 18.4402 9.29396 20.2871 9.29396C20.2871 8.35328 20.2871 7.44082 20.2871 6.51894C18.4121 6.51894 16.5652 6.51894 14.6996 6.51894C14.6996 7.45022 14.6996 8.36269 14.6996 9.29396ZM7.02148 11.5986C5.13711 11.5986 3.28086 11.5986 1.43398 11.5986C1.43398 12.5393 1.43398 13.4612 1.43398 14.3737C3.30898 14.3737 5.16523 14.3737 7.02148 14.3737C7.02148 13.4424 7.02148 12.5393 7.02148 11.5986ZM1.42461 24.392C3.30898 24.392 5.15586 24.392 7.00273 24.392C7.00273 23.4513 7.00273 22.5294 7.00273 21.6169C5.12773 21.6169 3.28086 21.6169 1.42461 21.6169C1.42461 22.5482 1.42461 23.4607 1.42461 24.392ZM20.2871 29.4811C20.2871 28.531 20.2871 27.6091 20.2871 26.706C18.4121 26.706 16.5559 26.706 14.709 26.706C14.709 27.6467 14.709 28.5592 14.709 29.4811C16.5746 29.4811 18.4121 29.4811 20.2871 29.4811ZM1.41523 34.5513C3.29961 34.5513 5.15586 34.5513 7.00273 34.5513C7.00273 33.6107 7.00273 32.6982 7.00273 31.7763C5.12773 31.7763 3.28086 31.7763 1.41523 31.7763C1.41523 32.7076 1.41523 33.6201 1.41523 34.5513Z" fill="#2283F6"/>
<path d="M36 20.394C35.7937 20.7797 35.475 20.902 35.0437 20.8926C32.85 20.8738 30.6656 20.8832 28.4719 20.8832C27.8063 20.8832 27.5625 20.648 27.5625 19.9613C27.5625 18.682 27.5625 17.4027 27.5625 16.1139C27.5625 15.4837 27.8062 15.2297 28.4344 15.2297C30.6375 15.2297 32.8406 15.2391 35.0437 15.2203C35.475 15.2203 35.7937 15.3426 36 15.7188C36 17.2898 36 18.8419 36 20.394ZM28.9875 19.4534C30.8625 19.4534 32.7188 19.4534 34.5656 19.4534C34.5656 18.5127 34.5656 17.5908 34.5656 16.6783C32.6906 16.6783 30.8531 16.6783 28.9875 16.6783C28.9875 17.6096 28.9875 18.5127 28.9875 19.4534Z" fill="#2283F6"/>
<path d="M26.7182 18.0611C26.7182 18.4562 26.39 18.7761 26.0057 18.7667C25.6307 18.7572 25.3213 18.4468 25.3213 18.0705C25.3213 17.6849 25.6494 17.3556 26.0338 17.365C26.4088 17.3744 26.7182 17.6849 26.7182 18.0611Z" fill="#2283F6"/>
</g>
<defs>
<clipPath id="clip0_41_1044">
<rect width="36" height="36" fill="white"/>
</clipPath>
</defs>
</svg>
