<svg width="27" height="28" viewBox="0 0 27 28" fill="none" xmlns="http://www.w3.org/2000/svg">
<path d="M24.1435 16.4551C24.1435 16.609 24.1435 16.7151 24.1435 16.8213C24.1435 19.3583 24.1435 21.8954 24.1435 24.4325C24.1435 26.2583 22.9032 27.5003 21.0799 27.5056C19.7442 27.5056 18.4032 27.5056 17.0675 27.5056C16.4209 27.5056 16.1241 27.203 16.1188 26.5449C16.1188 24.528 16.1188 22.5111 16.1188 20.4942C16.1188 19.5388 15.5834 19.008 14.6294 19.008C13.8714 19.008 13.1135 19.0027 12.3608 19.008C11.4756 19.0133 10.9297 19.5547 10.9244 20.4411C10.9244 22.4686 10.9244 24.4961 10.9244 26.5184C10.9244 27.2084 10.6329 27.5056 9.94914 27.5056C8.61345 27.5056 7.27246 27.5056 5.93678 27.5056C4.15056 27.5056 2.90497 26.253 2.90497 24.459C2.90497 21.9113 2.90497 19.369 2.90497 16.8213C2.90497 16.7151 2.90497 16.609 2.90497 16.4604C2.78306 16.4604 2.67176 16.4604 2.56575 16.4604C1.47918 16.4551 0.572818 15.8818 0.201793 14.9158C-0.195734 13.8862 0.00567976 12.952 0.779531 12.1718C2.43854 10.4946 4.11345 8.82797 5.77776 7.16137C7.73359 5.20285 9.71593 3.27618 11.6241 1.2805C12.6099 0.24551 14.4067 0.250818 15.4138 1.27519C18.9968 4.92685 22.617 8.54136 26.253 12.1399C27.3767 13.2546 27.2283 15.3298 25.8131 16.1207C25.4368 16.333 25.0392 16.4551 24.6099 16.4604C24.4668 16.4551 24.3184 16.4551 24.1435 16.4551ZM17.7036 25.9133C18.8484 25.9133 19.9456 25.9133 21.0481 25.9133C22.0392 25.9133 22.5587 25.3931 22.5587 24.3953C22.5587 21.5239 22.5587 18.6524 22.5587 15.7757C22.5587 15.1812 22.8767 14.8628 23.4703 14.8628C23.8414 14.8628 24.2071 14.8681 24.5781 14.8575C24.9809 14.8468 25.299 14.5921 25.4156 14.2099C25.5481 13.7641 25.3361 13.4562 25.0392 13.159C21.4615 9.58166 17.8838 5.99369 14.306 2.41103C13.7601 1.86434 13.2937 1.86434 12.7424 2.41634C9.55162 5.61685 6.3661 8.80674 3.18059 11.9966C2.74596 12.4319 2.30603 12.8671 1.8767 13.3076C1.59049 13.5995 1.50568 13.9499 1.66999 14.3267C1.829 14.6929 2.12582 14.8734 2.52865 14.8734C2.82547 14.8734 3.12759 14.8734 3.42441 14.8734C4.22476 14.8734 4.48978 15.1388 4.48978 15.9296C4.48978 18.7586 4.51098 21.5876 4.47918 24.4165C4.46858 25.3772 5.16292 25.9611 5.97918 25.9345C6.99685 25.8974 8.01981 25.9239 9.04278 25.9239C9.13819 25.9239 9.22829 25.9239 9.3396 25.9239C9.3396 25.7806 9.3396 25.6798 9.3396 25.5736C9.3396 23.7849 9.3237 21.9962 9.3502 20.2076C9.3714 18.801 10.5004 17.5644 11.905 17.4688C12.9809 17.3945 14.0675 17.4529 15.1488 17.4582C15.2336 17.4582 15.3237 17.4794 15.4085 17.5007C16.7813 17.8138 17.693 18.9443 17.6983 20.3774C17.7089 22.113 17.7036 23.8486 17.7036 25.5842C17.7036 25.6798 17.7036 25.7806 17.7036 25.9133Z" fill="#0D131C"/>
</svg>
